<svg id="Capa_1" enable-background="new 0 0 512 512" height="25" viewBox="0 0 512 512" width="25"
  xmlns="http://www.w3.org/2000/svg">
  <g>
    <path d="m286 360h-15l-75 45-75-45h-15c-57.9 0-106 47.1-106 105v32c0 8.401 6.599 15 15 15h181 180c8.401 0 15-6.599 15-15v-32c0-57.9-47.1-105-105-105z" fill="#ffe14d"/>
    <path d="m391 497v-32c0-57.9-47.1-105-105-105h-15l-75 45v107h180c8.401 0 15-6.599 15-15z" fill="#fabe2c"/>
    <path d="m256 360c-8.401 0-15-6.599-15-15h-45-45c0 8.401-6.599 15-15 15h-15c0 41.353 33.647 75 75 75s75-33.647 75-75z" fill="#f0f7ff"/>
    <path d="m271 360h-15c-8.401 0-15-6.599-15-15h-45v90c41.353 0 75-33.647 75-75z" fill="#dfe7f4"/>
    <path d="m196 324.901h-45v35.099c0 24.901 20.099 45 45 45s45-20.099 45-45v-35.099z" fill="#ffbfab"/>
    <path d="m241 360v-35.099h-45v80.099c24.901 0 45-20.099 45-45z" fill="#f89580"/>
    <g>
      <path d="m436 150h-150c-6.064 0-11.543-3.647-13.857-9.258-2.329-5.61-1.04-12.056 3.252-16.348l28.535-28.535c-1.949-6.723-2.93-13.711-2.93-20.859 0-41.353 33.647-75 75-75h60c41.353 0 76 33.647 76 75s-34.647 75-76 75z" fill="#59c36a"/>
    </g>
    <g>
      <g>
        <circle cx="376" cy="75" fill="#dfe7f4" r="15"/>
      </g>
    </g>
    <g>
      <g>
        <circle cx="436" cy="75" fill="#dfe7f4" r="15"/>
      </g>
    </g>
    <path d="m299.801 150-30-30-73.801 27.034-90 32.966-15 30v45c0 57.9 47.1 105 105 105s105-47.1 105-105v-90c0-5.099-.3-10.201-1.199-15z" fill="#ffe1ba"/>
    <path d="m301 255v-90c0-5.099-.3-10.201-1.199-15l-30-30-73.801 27.034v212.966c57.9 0 105-47.1 105-105z" fill="#ffbfab"/>
    <path d="m196 60c-57.9 0-105 47.1-105 105v45h45c24.113 0 46.093-11.933 60-31.229 2.01-2.791 4.371-5.262 6-8.372 6.899-12.299 21.599-20.4 37.8-20.4h60c-7.018-49.079-49.597-89.999-103.8-89.999z" fill="#334973"/>
    <path d="m239.801 150h60c-7.019-49.08-49.598-90-103.801-90v118.771c2.01-2.791 4.371-5.262 6-8.372 6.9-12.298 21.599-20.399 37.801-20.399z" fill="#1f3259"/>
  </g>
</svg>